<svg width="299" height="299" viewBox="0 0 299 299" fill="none" xmlns="http://www.w3.org/2000/svg">
<rect width="299" height="299" rx="80" fill="#20201B"/>
<path d="M136.429 74V99C136.429 105.914 142.046 111.5 149 111.5H174.143C181.096 111.5 186.714 105.914 186.714 99V74C186.714 67.0859 181.096 61.5 174.143 61.5H149C142.046 61.5 136.429 67.0859 136.429 74ZM93.4893 129.859C87.4786 133.297 85.4357 140.953 88.8929 146.93L101.464 168.57C104.921 174.547 112.621 176.578 118.632 173.141L140.396 160.641C146.407 157.203 148.45 149.547 144.993 143.57L132.421 121.93C128.964 115.953 121.264 113.922 115.254 117.359L93.4893 129.859ZM174.143 124C167.189 124 161.571 129.586 161.571 136.5V161.5C161.571 168.414 167.189 174 174.143 174H199.286C206.239 174 211.857 168.414 211.857 161.5V136.5C211.857 129.586 206.239 124 199.286 124H174.143ZM199.286 186.5C192.332 186.5 186.714 192.086 186.714 199V224C186.714 230.914 192.332 236.5 199.286 236.5H224.429C231.382 236.5 237 230.914 237 224V199C237 192.086 231.382 186.5 224.429 186.5H199.286ZM123.857 199V224C123.857 230.914 129.475 236.5 136.429 236.5H161.571C168.525 236.5 174.143 230.914 174.143 224V199C174.143 192.086 168.525 186.5 161.571 186.5H136.429C129.475 186.5 123.857 192.086 123.857 199ZM73.5714 186.5C66.6179 186.5 61 192.086 61 199V224C61 230.914 66.6179 236.5 73.5714 236.5H98.7143C105.668 236.5 111.286 230.914 111.286 224V199C111.286 192.086 105.668 186.5 98.7143 186.5H73.5714Z" fill="#D0FF71"/>
</svg>
